<mxfile host="app.diagrams.net" agent="Mozilla/5.0 (Windows NT 10.0; Win64; x64) AppleWebKit/537.36 (KHTML, like Gecko) Chrome/130.0.0.0 Safari/537.36" version="24.8.3">
  <diagram id="I359MItvWsh4OVZl2oIO" name="Seite-1">
    <mxGraphModel dx="1434" dy="772" grid="1" gridSize="10" guides="1" tooltips="1" connect="1" arrows="1" fold="1" page="1" pageScale="1" pageWidth="827" pageHeight="1169" math="0" shadow="0">
      <root>
        <mxCell id="0" />
        <mxCell id="1" parent="0" />
        <mxCell id="ifa1-IcgKsluYtl1UEuV-2" value="" style="rounded=0;whiteSpace=wrap;html=1;" parent="1" vertex="1">
          <mxGeometry x="230" y="100" width="340" height="520" as="geometry" />
        </mxCell>
        <mxCell id="ifa1-IcgKsluYtl1UEuV-3" value="&lt;h1&gt;&lt;font style=&quot;font-size: 27px;&quot;&gt;Lernhelfer&lt;/font&gt;&lt;/h1&gt;" style="rounded=0;whiteSpace=wrap;html=1;" parent="1" vertex="1">
          <mxGeometry x="230" y="100" width="340" height="80" as="geometry" />
        </mxCell>
        <mxCell id="ifa1-IcgKsluYtl1UEuV-4" value="" style="rounded=0;whiteSpace=wrap;html=1;" parent="1" vertex="1">
          <mxGeometry x="230" y="560" width="340" height="60" as="geometry" />
        </mxCell>
        <mxCell id="ifa1-IcgKsluYtl1UEuV-5" value="" style="points=[[0.145,0.145,0],[0.5,0,0],[0.855,0.145,0],[1,0.5,0],[0.855,0.855,0],[0.5,1,0],[0.145,0.855,0],[0,0.5,0]];shape=mxgraph.bpmn.event;html=1;verticalLabelPosition=bottom;labelBackgroundColor=#ffffff;verticalAlign=top;align=center;perimeter=ellipsePerimeter;outlineConnect=0;aspect=fixed;outline=standard;symbol=timer;" parent="1" vertex="1">
          <mxGeometry x="258.75" y="570.63" width="27.5" height="27.5" as="geometry" />
        </mxCell>
        <mxCell id="ifa1-IcgKsluYtl1UEuV-67" value="" style="sketch=0;aspect=fixed;pointerEvents=1;shadow=0;dashed=0;html=1;strokeColor=none;labelPosition=center;verticalLabelPosition=bottom;verticalAlign=top;align=center;fillColor=#00188D;shape=mxgraph.mscae.enterprise.calendar" parent="1" vertex="1">
          <mxGeometry x="344.38" y="574" width="26.25" height="21.53" as="geometry" />
        </mxCell>
        <mxCell id="rY3xB4cPp5pABSBBmHks-41" value="" style="rounded=1;whiteSpace=wrap;html=1;" vertex="1" parent="1">
          <mxGeometry x="485.01" y="560" width="85" height="60" as="geometry" />
        </mxCell>
        <mxCell id="ifa1-IcgKsluYtl1UEuV-70" value="" style="html=1;verticalLabelPosition=bottom;align=center;labelBackgroundColor=#ffffff;verticalAlign=top;strokeWidth=2;strokeColor=#0080F0;shadow=0;dashed=0;shape=mxgraph.ios7.icons.add;" parent="1" vertex="1">
          <mxGeometry x="516.25" y="575.63" width="22.5" height="22.5" as="geometry" />
        </mxCell>
        <mxCell id="ifa1-IcgKsluYtl1UEuV-73" value="Timer" style="text;html=1;align=center;verticalAlign=middle;whiteSpace=wrap;rounded=0;" parent="1" vertex="1">
          <mxGeometry x="242.5" y="595.53" width="60" height="30" as="geometry" />
        </mxCell>
        <mxCell id="ifa1-IcgKsluYtl1UEuV-74" value="Lernplan" style="text;html=1;align=center;verticalAlign=middle;whiteSpace=wrap;rounded=0;" parent="1" vertex="1">
          <mxGeometry x="327.5" y="595.53" width="60" height="30" as="geometry" />
        </mxCell>
        <mxCell id="ifa1-IcgKsluYtl1UEuV-75" value="Hinzuf端gen" style="text;html=1;align=center;verticalAlign=middle;whiteSpace=wrap;rounded=0;" parent="1" vertex="1">
          <mxGeometry x="497.5" y="595.53" width="60" height="30" as="geometry" />
        </mxCell>
        <mxCell id="ifa1-IcgKsluYtl1UEuV-77" value="" style="shape=image;html=1;verticalAlign=top;verticalLabelPosition=bottom;labelBackgroundColor=#ffffff;imageAspect=0;aspect=fixed;image=https://cdn0.iconfinder.com/data/icons/job-seeker/256/test_job_seeker_employee_unemployee_work-128.png" parent="1" vertex="1">
          <mxGeometry x="426.75" y="571.13" width="31.5" height="31.5" as="geometry" />
        </mxCell>
        <mxCell id="ifa1-IcgKsluYtl1UEuV-78" value="Pr端fungsplan" style="text;html=1;align=center;verticalAlign=middle;whiteSpace=wrap;rounded=0;" parent="1" vertex="1">
          <mxGeometry x="412.5" y="595.53" width="60" height="30" as="geometry" />
        </mxCell>
        <mxCell id="rY3xB4cPp5pABSBBmHks-14" value="Name:" style="text;html=1;align=left;verticalAlign=middle;whiteSpace=wrap;rounded=0;" vertex="1" parent="1">
          <mxGeometry x="258.75" y="190" width="60" height="30" as="geometry" />
        </mxCell>
        <mxCell id="rY3xB4cPp5pABSBBmHks-15" value="Pr端fungsname" style="html=1;shadow=0;dashed=0;shape=mxgraph.bootstrap.rrect;rSize=5;strokeColor=#CED4DA;strokeWidth=1;fillColor=#E9ECEF;fontColor=#505050;whiteSpace=wrap;align=left;verticalAlign=middle;spacingLeft=10;fontSize=14;" vertex="1" parent="1">
          <mxGeometry x="276.25" y="220" width="240" height="30" as="geometry" />
        </mxCell>
        <mxCell id="rY3xB4cPp5pABSBBmHks-16" value="Datum:" style="text;html=1;align=left;verticalAlign=middle;whiteSpace=wrap;rounded=0;" vertex="1" parent="1">
          <mxGeometry x="258.75" y="250" width="60" height="30" as="geometry" />
        </mxCell>
        <mxCell id="rY3xB4cPp5pABSBBmHks-18" value="&lt;font face=&quot;Helvetica&quot;&gt;Pr端fungsdatum&lt;/font&gt;" style="rounded=1;arcSize=9;fillColor=#F7F8F9;align=left;spacingLeft=5;strokeColor=#DEE1E6;html=1;strokeWidth=2;fontColor=#596780;fontSize=12;sketch=1;hachureGap=4;pointerEvents=0;fontFamily=Architects Daughter;fontSource=https%3A%2F%2Ffonts.googleapis.com%2Fcss%3Ffamily%3DArchitects%2BDaughter;" vertex="1" parent="1">
          <mxGeometry x="276.25" y="277" width="240" height="33" as="geometry" />
        </mxCell>
        <mxCell id="rY3xB4cPp5pABSBBmHks-19" value="" style="shape=mxgraph.gmdl.calendar;fillColor=#5A6881;strokeColor=none;sketch=0;hachureGap=4;pointerEvents=0;fontFamily=Architects Daughter;fontSource=https%3A%2F%2Ffonts.googleapis.com%2Fcss%3Ffamily%3DArchitects%2BDaughter;fontSize=20;" vertex="1" parent="rY3xB4cPp5pABSBBmHks-18">
          <mxGeometry x="1" y="0.5" width="18" height="18" relative="1" as="geometry">
            <mxPoint x="-29" y="-9" as="offset" />
          </mxGeometry>
        </mxCell>
        <mxCell id="rY3xB4cPp5pABSBBmHks-20" value="Arbeitsaufwand:" style="text;html=1;align=left;verticalAlign=middle;whiteSpace=wrap;rounded=0;" vertex="1" parent="1">
          <mxGeometry x="258.75" y="310" width="60" height="30" as="geometry" />
        </mxCell>
        <mxCell id="rY3xB4cPp5pABSBBmHks-22" value="Aufwand" style="html=1;shadow=0;dashed=0;shape=mxgraph.bootstrap.rrect;rSize=5;strokeColor=#CED4DA;html=1;whiteSpace=wrap;fillColor=#FFFFFF;fontColor=#7D868C;align=left;spacing=15;fontSize=14;" vertex="1" parent="1">
          <mxGeometry x="276.25" y="340" width="240" height="30" as="geometry" />
        </mxCell>
        <mxCell id="rY3xB4cPp5pABSBBmHks-23" value="" style="shape=triangle;direction=south;fillColor=#343A40;strokeColor=none;perimeter=none;" vertex="1" parent="rY3xB4cPp5pABSBBmHks-22">
          <mxGeometry x="1" y="0.5" width="7" height="3" relative="1" as="geometry">
            <mxPoint x="-20" y="1" as="offset" />
          </mxGeometry>
        </mxCell>
        <mxCell id="rY3xB4cPp5pABSBBmHks-24" value="" style="shape=triangle;direction=north;fillColor=#343A40;strokeColor=none;perimeter=none;" vertex="1" parent="rY3xB4cPp5pABSBBmHks-22">
          <mxGeometry x="1" y="0.5" width="7" height="3" relative="1" as="geometry">
            <mxPoint x="-20" y="-3" as="offset" />
          </mxGeometry>
        </mxCell>
        <mxCell id="rY3xB4cPp5pABSBBmHks-36" value="Speichern" style="rounded=1;fillColor=#0057D8;strokeColor=none;html=1;whiteSpace=wrap;fontColor=#ffffff;align=center;verticalAlign=middle;fontStyle=0;fontSize=12;sketch=0;" vertex="1" parent="1">
          <mxGeometry x="472.5" y="510" width="86" height="33" as="geometry" />
        </mxCell>
        <mxCell id="rY3xB4cPp5pABSBBmHks-37" value="Lernbeginn:" style="text;html=1;align=left;verticalAlign=middle;whiteSpace=wrap;rounded=0;" vertex="1" parent="1">
          <mxGeometry x="258.75" y="370" width="60" height="30" as="geometry" />
        </mxCell>
        <mxCell id="rY3xB4cPp5pABSBBmHks-38" value="&lt;font face=&quot;Helvetica&quot;&gt;Datum&lt;/font&gt;" style="rounded=1;arcSize=9;fillColor=#F7F8F9;align=left;spacingLeft=5;strokeColor=#DEE1E6;html=1;strokeWidth=2;fontColor=#596780;fontSize=12;sketch=1;hachureGap=4;pointerEvents=0;fontFamily=Architects Daughter;fontSource=https%3A%2F%2Ffonts.googleapis.com%2Fcss%3Ffamily%3DArchitects%2BDaughter;" vertex="1" parent="1">
          <mxGeometry x="276.25" y="400" width="240" height="33" as="geometry" />
        </mxCell>
        <mxCell id="rY3xB4cPp5pABSBBmHks-39" value="" style="shape=mxgraph.gmdl.calendar;fillColor=#5A6881;strokeColor=none;sketch=0;hachureGap=4;pointerEvents=0;fontFamily=Architects Daughter;fontSource=https%3A%2F%2Ffonts.googleapis.com%2Fcss%3Ffamily%3DArchitects%2BDaughter;fontSize=20;" vertex="1" parent="rY3xB4cPp5pABSBBmHks-38">
          <mxGeometry x="1" y="0.5" width="18" height="18" relative="1" as="geometry">
            <mxPoint x="-29" y="-9" as="offset" />
          </mxGeometry>
        </mxCell>
        <mxCell id="rY3xB4cPp5pABSBBmHks-40" value="Schwierigkeit" style="strokeWidth=1;html=1;shadow=0;dashed=0;shape=mxgraph.ios.iComboBox;spacingTop=2;spacingLeft=2;align=left;strokeColor=#444444;fontColor=#666666;buttonText=;fontSize=8;fillColor=#dddddd;fillColor2=#3D5565;sketch=0;whiteSpace=wrap;" vertex="1" parent="1">
          <mxGeometry x="258.75" y="460" width="90.5" height="15" as="geometry" />
        </mxCell>
        <mxCell id="rY3xB4cPp5pABSBBmHks-42" value="Abbrechen" style="rounded=1;html=1;whiteSpace=wrap;align=center;verticalAlign=middle;fontStyle=0;fontSize=12;sketch=0;" vertex="1" parent="1">
          <mxGeometry x="371" y="510" width="86" height="33" as="geometry" />
        </mxCell>
      </root>
    </mxGraphModel>
  </diagram>
</mxfile>
